<?xml version="1.0" encoding="UTF-8" standalone="no"?><svg xmlns="http://www.w3.org/2000/svg" xmlns:xlink="http://www.w3.org/1999/xlink" contentStyleType="text/css" height="900.1464px" preserveAspectRatio="none" style="width:611px;height:900px;background:#FFFFFF;" version="1.1" viewBox="0 0 611 900" width="611.7737px" zoomAndPan="magnify"><defs/><g><rect fill="none" height="21.4218" id="_title" style="stroke:none;stroke-width:0.8146121046267422;" width="133.5964" x="240.3106" y="8.1461"/><text fill="#000000" font-family="sans-serif" font-size="11.4046" font-weight="bold" lengthAdjust="spacing" textLength="125.4503" x="244.3836" y="22.8052">分布式身份认证协议流程</text><rect fill="#FFFFFF" height="134.2455" style="stroke:#181818;stroke-width:0.8146121046267422;" width="8.1461" x="317.6987" y="270.1203"/><rect fill="#FFFFFF" height="40.947" style="stroke:#181818;stroke-width:0.8146121046267422;" width="8.1461" x="317.6987" y="495.2205"/><rect fill="none" height="143.3145" style="stroke:#000000;stroke-width:1.2219181569401132;" width="252.9371" x="8.1461" y="84.2296"/><rect fill="none" height="213.6957" style="stroke:#000000;stroke-width:1.2219181569401132;" width="273.3024" x="172.2905" y="238.9486"/><rect fill="none" height="156.4564" style="stroke:#000000;stroke-width:1.2219181569401132;" width="450.4805" x="8.1461" y="464.0489"/><rect fill="none" height="215.8722" style="stroke:#000000;stroke-width:1.2219181569401132;" width="442.7417" x="164.1443" y="631.9099"/><rect fill="none" height="73.4806" style="stroke:#000000;stroke-width:1.2219181569401132;" width="340.9152" x="172.2905" y="768.5992"/><line style="stroke:#181818;stroke-width:0.4073060523133711;stroke-dasharray:5.0,5.0;" x1="42.3598" x2="42.3598" y1="70.3812" y2="861.6305"/><line style="stroke:#181818;stroke-width:0.4073060523133711;stroke-dasharray:5.0,5.0;" x1="216.2795" x2="216.2795" y1="70.3812" y2="861.6305"/><line style="stroke:#181818;stroke-width:0.4073060523133711;stroke-dasharray:5.0,5.0;" x1="321.3645" x2="321.3645" y1="70.3812" y2="861.6305"/><line style="stroke:#181818;stroke-width:0.4073060523133711;stroke-dasharray:5.0,5.0;" x1="458.6266" x2="458.6266" y1="70.3812" y2="861.6305"/><rect fill="#E2E2F0" height="35.1111" rx="2.0365" ry="2.0365" style="stroke:#181818;stroke-width:0.4073060523133711;" width="52.1352" x="16.2922" y="34.4555"/><text fill="#000000" font-family="sans-serif" font-size="20.3653" lengthAdjust="spacing" textLength="40.7306" x="21.9945" y="59.0614">设备</text><rect fill="#E2E2F0" height="35.1111" rx="2.0365" ry="2.0365" style="stroke:#181818;stroke-width:0.4073060523133711;" width="52.1352" x="16.2922" y="860.8159"/><text fill="#000000" font-family="sans-serif" font-size="20.3653" lengthAdjust="spacing" textLength="40.7306" x="21.9945" y="885.4217">设备</text><rect fill="#E2E2F0" height="35.1111" rx="2.0365" ry="2.0365" style="stroke:#181818;stroke-width:0.4073060523133711;" width="72.5005" x="180.4366" y="34.4555"/><text fill="#000000" font-family="sans-serif" font-size="20.3653" lengthAdjust="spacing" textLength="61.0959" x="186.1389" y="59.0614">区块链</text><rect fill="#E2E2F0" height="35.1111" rx="2.0365" ry="2.0365" style="stroke:#181818;stroke-width:0.4073060523133711;" width="72.5005" x="180.4366" y="860.8159"/><text fill="#000000" font-family="sans-serif" font-size="20.3653" lengthAdjust="spacing" textLength="61.0959" x="186.1389" y="885.4217">区块链</text><rect fill="#E2E2F0" height="35.1111" rx="2.0365" ry="2.0365" style="stroke:#181818;stroke-width:0.4073060523133711;" width="75.7589" x="283.8923" y="34.4555"/><text fill="#000000" font-family="sans-serif" font-size="20.3653" lengthAdjust="spacing" textLength="64.3544" x="289.5946" y="59.0614">KGG组</text><rect fill="#E2E2F0" height="35.1111" rx="2.0365" ry="2.0365" style="stroke:#181818;stroke-width:0.4073060523133711;" width="75.7589" x="283.8923" y="860.8159"/><text fill="#000000" font-family="sans-serif" font-size="20.3653" lengthAdjust="spacing" textLength="64.3544" x="289.5946" y="885.4217">KGG组</text><rect fill="#E2E2F0" height="35.1111" rx="2.0365" ry="2.0365" style="stroke:#181818;stroke-width:0.4073060523133711;" width="92.8658" x="412.1937" y="34.4555"/><text fill="#000000" font-family="sans-serif" font-size="20.3653" lengthAdjust="spacing" textLength="81.4612" x="417.896" y="59.0614">智能合约</text><rect fill="#E2E2F0" height="35.1111" rx="2.0365" ry="2.0365" style="stroke:#181818;stroke-width:0.4073060523133711;" width="92.8658" x="412.1937" y="860.8159"/><text fill="#000000" font-family="sans-serif" font-size="20.3653" lengthAdjust="spacing" textLength="81.4612" x="417.896" y="885.4217">智能合约</text><rect fill="#FFFFFF" height="134.2455" style="stroke:#181818;stroke-width:0.8146121046267422;" width="8.1461" x="317.6987" y="270.1203"/><rect fill="#FFFFFF" height="40.947" style="stroke:#181818;stroke-width:0.8146121046267422;" width="8.1461" x="317.6987" y="495.2205"/><path d="M8.1461,84.2296 L129.5233,84.2296 L129.5233,90.0401 L121.3772,98.1862 L8.1461,98.1862 L8.1461,84.2296 " fill="#EEEEEE" style="stroke:#000000;stroke-width:1.2219181569401132;"/><rect fill="none" height="143.3145" style="stroke:#000000;stroke-width:1.2219181569401132;" width="252.9371" x="8.1461" y="84.2296"/><text fill="#000000" font-family="sans-serif" font-size="10.59" font-weight="bold" lengthAdjust="spacing" textLength="84.7197" x="20.3653" y="94.8741">设备注册请求生成</text><line style="stroke:#181818;stroke-width:0.8146121046267422;" x1="42.3598" x2="76.5735" y1="127.7286" y2="127.7286"/><line style="stroke:#181818;stroke-width:0.8146121046267422;" x1="76.5735" x2="76.5735" y1="127.7286" y2="138.3186"/><line style="stroke:#181818;stroke-width:0.8146121046267422;" x1="43.1744" x2="76.5735" y1="138.3186" y2="138.3186"/><polygon fill="#181818" points="51.3206,135.0601,43.1744,138.3186,51.3206,141.577,48.0621,138.3186" style="stroke:#181818;stroke-width:0.8146121046267422;"/><text fill="#000000" font-family="sans-serif" font-size="10.59" lengthAdjust="spacing" textLength="52.9498" x="48.0621" y="111.2745">生成密钥对</text><text fill="#000000" font-family="sans-serif" font-size="10.59" lengthAdjust="spacing" textLength="54.579" x="48.0621" y="123.6019">(PK_i,SK_i)</text><line style="stroke:#181818;stroke-width:0.8146121046267422;" x1="42.3598" x2="76.5735" y1="174.3779" y2="174.3779"/><line style="stroke:#181818;stroke-width:0.8146121046267422;" x1="76.5735" x2="76.5735" y1="174.3779" y2="184.9679"/><line style="stroke:#181818;stroke-width:0.8146121046267422;" x1="43.1744" x2="76.5735" y1="184.9679" y2="184.9679"/><polygon fill="#181818" points="51.3206,181.7094,43.1744,184.9679,51.3206,188.2263,48.0621,184.9679" style="stroke:#181818;stroke-width:0.8146121046267422;"/><text fill="#000000" font-family="sans-serif" font-size="10.59" lengthAdjust="spacing" textLength="65.9836" x="48.0621" y="157.9238">计算H(PUF_i)</text><text fill="#000000" font-family="sans-serif" font-size="10.59" lengthAdjust="spacing" textLength="63.5397" x="48.0621" y="170.2511">绑定硬件特征</text><polygon fill="#181818" points="206.9115,217.7687,215.0576,221.0272,206.9115,224.2856,210.1699,221.0272" style="stroke:#181818;stroke-width:0.8146121046267422;"/><line style="stroke:#181818;stroke-width:0.8146121046267422;" x1="42.3598" x2="211.7991" y1="221.0272" y2="221.0272"/><text fill="#000000" font-family="sans-serif" font-size="10.59" lengthAdjust="spacing" textLength="63.5397" x="48.0621" y="204.573">发送注册请求</text><text fill="#000000" font-family="sans-serif" font-size="10.59" lengthAdjust="spacing" textLength="154.7763" x="48.0621" y="216.9004">IR_i=⟨ID_i,PK_i,H(PUF_i),σ_SK⟩</text><path d="M172.2905,238.9486 L277.3754,238.9486 L277.3754,244.7591 L269.2293,252.9052 L172.2905,252.9052 L172.2905,238.9486 " fill="#EEEEEE" style="stroke:#000000;stroke-width:1.2219181569401132;"/><rect fill="none" height="213.6957" style="stroke:#000000;stroke-width:1.2219181569401132;" width="273.3024" x="172.2905" y="238.9486"/><text fill="#000000" font-family="sans-serif" font-size="10.59" font-weight="bold" lengthAdjust="spacing" textLength="68.4274" x="184.5096" y="249.5931">KGG共识验证</text><polygon fill="#181818" points="307.9234,266.8618,316.0695,270.1203,307.9234,273.3787,311.1818,270.1203" style="stroke:#181818;stroke-width:0.8146121046267422;"/><line style="stroke:#181818;stroke-width:0.8146121046267422;" x1="216.6868" x2="312.811" y1="270.1203" y2="270.1203"/><text fill="#000000" font-family="sans-serif" font-size="10.59" lengthAdjust="spacing" textLength="63.5397" x="222.3891" y="265.9935">广播验证请求</text><line style="stroke:#181818;stroke-width:0.8146121046267422;" x1="325.8448" x2="360.0586" y1="306.1796" y2="306.1796"/><line style="stroke:#181818;stroke-width:0.8146121046267422;" x1="360.0586" x2="360.0586" y1="306.1796" y2="316.7696"/><line style="stroke:#181818;stroke-width:0.8146121046267422;" x1="326.6595" x2="360.0586" y1="316.7696" y2="316.7696"/><polygon fill="#181818" points="334.8056,313.5111,326.6595,316.7696,334.8056,320.028,331.5471,316.7696" style="stroke:#181818;stroke-width:0.8146121046267422;"/><text fill="#000000" font-family="sans-serif" font-size="10.59" lengthAdjust="spacing" textLength="73.3151" x="331.5471" y="289.7255">1.物理特征校验</text><text fill="#000000" font-family="sans-serif" font-size="10.59" lengthAdjust="spacing" textLength="82.2758" x="331.5471" y="302.0528">(匹配预置数据库)</text><line style="stroke:#181818;stroke-width:0.8146121046267422;" x1="325.8448" x2="360.0586" y1="352.8289" y2="352.8289"/><line style="stroke:#181818;stroke-width:0.8146121046267422;" x1="360.0586" x2="360.0586" y1="352.8289" y2="363.4188"/><line style="stroke:#181818;stroke-width:0.8146121046267422;" x1="326.6595" x2="360.0586" y1="363.4188" y2="363.4188"/><polygon fill="#181818" points="334.8056,360.1604,326.6595,363.4188,334.8056,366.6773,331.5471,363.4188" style="stroke:#181818;stroke-width:0.8146121046267422;"/><text fill="#000000" font-family="sans-serif" font-size="10.59" lengthAdjust="spacing" textLength="73.3151" x="331.5471" y="336.3747">2.行为模式分析</text><text fill="#000000" font-family="sans-serif" font-size="10.59" lengthAdjust="spacing" textLength="85.5343" x="331.5471" y="348.7021">(信号/采样稳定性)</text><line style="stroke:#181818;stroke-width:0.8146121046267422;" x1="325.8448" x2="360.0586" y1="403.5512" y2="403.5512"/><line style="stroke:#181818;stroke-width:0.8146121046267422;" x1="360.0586" x2="360.0586" y1="403.5512" y2="414.1412"/><line style="stroke:#181818;stroke-width:0.8146121046267422;" x1="321.7718" x2="360.0586" y1="414.1412" y2="414.1412"/><polygon fill="#181818" points="329.9179,410.8827,321.7718,414.1412,329.9179,417.3996,326.6595,414.1412" style="stroke:#181818;stroke-width:0.8146121046267422;"/><text fill="#000000" font-family="sans-serif" font-size="10.59" lengthAdjust="spacing" textLength="83.905" x="331.5471" y="387.0971">3.拓扑关联度计算</text><text fill="#000000" font-family="sans-serif" font-size="10.59" lengthAdjust="spacing" textLength="104.2703" x="331.5471" y="399.4244">T(n_i)=Σ(Q(v_j)/dist)</text><polygon fill="#181818" points="225.6476,442.869,217.5014,446.1274,225.6476,449.3859,222.3891,446.1274" style="stroke:#181818;stroke-width:0.8146121046267422;"/><line style="stroke:#181818;stroke-width:0.8146121046267422;stroke-dasharray:2.0,2.0;" x1="220.7599" x2="320.9572" y1="446.1274" y2="446.1274"/><text fill="#000000" font-family="sans-serif" font-size="10.59" lengthAdjust="spacing" textLength="63.5397" x="230.5352" y="429.6733">返回验证结果</text><text fill="#000000" font-family="sans-serif" font-size="10.59" lengthAdjust="spacing" textLength="80.6466" x="230.5352" y="442.0007">(Byzantine共识)</text><path d="M8.1461,464.0489 L108.3434,464.0489 L108.3434,469.8594 L100.1973,478.0055 L8.1461,478.0055 L8.1461,464.0489 " fill="#EEEEEE" style="stroke:#000000;stroke-width:1.2219181569401132;"/><rect fill="none" height="156.4564" style="stroke:#000000;stroke-width:1.2219181569401132;" width="450.4805" x="8.1461" y="464.0489"/><text fill="#000000" font-family="sans-serif" font-size="10.59" font-weight="bold" lengthAdjust="spacing" textLength="63.5397" x="20.3653" y="474.6933">门限证书颁发</text><polygon fill="#181818" points="307.9234,491.9621,316.0695,495.2205,307.9234,498.479,311.1818,495.2205" style="stroke:#181818;stroke-width:0.8146121046267422;"/><line style="stroke:#181818;stroke-width:0.8146121046267422;" x1="216.6868" x2="312.811" y1="495.2205" y2="495.2205"/><text fill="#000000" font-family="sans-serif" font-size="10.59" lengthAdjust="spacing" textLength="85.5343" x="222.3891" y="491.0938">触发(t,n)门限签名</text><line style="stroke:#181818;stroke-width:0.8146121046267422;" x1="325.8448" x2="360.0586" y1="535.3529" y2="535.3529"/><line style="stroke:#181818;stroke-width:0.8146121046267422;" x1="360.0586" x2="360.0586" y1="535.3529" y2="545.9428"/><line style="stroke:#181818;stroke-width:0.8146121046267422;" x1="321.7718" x2="360.0586" y1="545.9428" y2="545.9428"/><polygon fill="#181818" points="329.9179,542.6844,321.7718,545.9428,329.9179,549.2013,326.6595,545.9428" style="stroke:#181818;stroke-width:0.8146121046267422;"/><text fill="#000000" font-family="sans-serif" font-size="10.59" lengthAdjust="spacing" textLength="63.5397" x="331.5471" y="518.8988">聚合签名分片</text><text fill="#000000" font-family="sans-serif" font-size="10.59" lengthAdjust="spacing" textLength="117.3041" x="331.5471" y="531.2261">∏σ_SK_KGG(H(ID||PK))</text><polygon fill="#181818" points="225.6476,574.6707,217.5014,577.9291,225.6476,581.1876,222.3891,577.9291" style="stroke:#181818;stroke-width:0.8146121046267422;"/><line style="stroke:#181818;stroke-width:0.8146121046267422;stroke-dasharray:2.0,2.0;" x1="220.7599" x2="320.9572" y1="577.9291" y2="577.9291"/><text fill="#000000" font-family="sans-serif" font-size="10.59" lengthAdjust="spacing" textLength="51.3206" x="230.5352" y="561.475">生成Cert_i</text><text fill="#000000" font-family="sans-serif" font-size="10.59" lengthAdjust="spacing" textLength="74.9443" x="230.5352" y="573.8023">存储至Verkle树</text><polygon fill="#181818" points="51.3206,610.73,43.1744,613.9884,51.3206,617.2469,48.0621,613.9884" style="stroke:#181818;stroke-width:0.8146121046267422;"/><line style="stroke:#181818;stroke-width:0.8146121046267422;" x1="46.4329" x2="215.8722" y1="613.9884" y2="613.9884"/><text fill="#000000" font-family="sans-serif" font-size="10.59" lengthAdjust="spacing" textLength="63.5397" x="56.2082" y="597.5343">颁发设备证书</text><text fill="#000000" font-family="sans-serif" font-size="10.59" lengthAdjust="spacing" textLength="81.4612" x="56.2082" y="609.8617">⟨ID,PK,T_expire⟩</text><path d="M164.1443,631.9099 L264.3416,631.9099 L264.3416,637.7204 L256.1955,645.8665 L164.1443,645.8665 L164.1443,631.9099 " fill="#EEEEEE" style="stroke:#000000;stroke-width:1.2219181569401132;"/><rect fill="none" height="215.8722" style="stroke:#000000;stroke-width:1.2219181569401132;" width="442.7417" x="164.1443" y="631.9099"/><text fill="#000000" font-family="sans-serif" font-size="10.59" font-weight="bold" lengthAdjust="spacing" textLength="63.5397" x="176.3635" y="642.5543">动态证书管理</text><polygon fill="#181818" points="448.8513,659.8231,456.9974,663.0815,448.8513,666.34,452.1097,663.0815" style="stroke:#181818;stroke-width:0.8146121046267422;"/><line style="stroke:#181818;stroke-width:0.8146121046267422;" x1="216.6868" x2="453.7389" y1="663.0815" y2="663.0815"/><text fill="#000000" font-family="sans-serif" font-size="10.59" lengthAdjust="spacing" textLength="63.5397" x="222.3891" y="658.9548">监控证书状态</text><line style="stroke:#181818;stroke-width:0.8146121046267422;" x1="458.6266" x2="492.8403" y1="699.1408" y2="699.1408"/><line style="stroke:#181818;stroke-width:0.8146121046267422;" x1="492.8403" x2="492.8403" y1="699.1408" y2="709.7308"/><line style="stroke:#181818;stroke-width:0.8146121046267422;" x1="459.4412" x2="492.8403" y1="709.7308" y2="709.7308"/><polygon fill="#181818" points="467.5873,706.4723,459.4412,709.7308,467.5873,712.9892,464.3289,709.7308" style="stroke:#181818;stroke-width:0.8146121046267422;"/><text fill="#000000" font-family="sans-serif" font-size="10.59" lengthAdjust="spacing" textLength="63.5397" x="464.3289" y="682.6867">自动续期条件</text><text fill="#000000" font-family="sans-serif" font-size="10.59" lengthAdjust="spacing" textLength="132.7818" x="464.3289" y="695.0141">(T_expire-T_current &lt; ΔT)</text><line style="stroke:#181818;stroke-width:0.8146121046267422;" x1="458.6266" x2="492.8403" y1="745.7901" y2="745.7901"/><line style="stroke:#181818;stroke-width:0.8146121046267422;" x1="492.8403" x2="492.8403" y1="745.7901" y2="756.3801"/><line style="stroke:#181818;stroke-width:0.8146121046267422;" x1="459.4412" x2="492.8403" y1="756.3801" y2="756.3801"/><polygon fill="#181818" points="467.5873,753.1216,459.4412,756.3801,467.5873,759.6385,464.3289,756.3801" style="stroke:#181818;stroke-width:0.8146121046267422;"/><text fill="#000000" font-family="sans-serif" font-size="10.59" lengthAdjust="spacing" textLength="63.5397" x="464.3289" y="729.336">异常检测机制</text><text fill="#000000" font-family="sans-serif" font-size="10.59" lengthAdjust="spacing" textLength="67.6128" x="464.3289" y="741.6634">(连续3次失败)</text><path d="M172.2905,768.5992 L224.4256,768.5992 L224.4256,774.4097 L216.2795,782.5558 L172.2905,782.5558 L172.2905,768.5992 " fill="#EEEEEE" style="stroke:#000000;stroke-width:1.2219181569401132;"/><rect fill="none" height="73.4806" style="stroke:#000000;stroke-width:1.2219181569401132;" width="340.9152" x="172.2905" y="768.5992"/><text fill="#000000" font-family="sans-serif" font-size="10.59" font-weight="bold" lengthAdjust="spacing" textLength="15.4776" x="184.5096" y="779.2437">alt</text><text fill="#000000" font-family="sans-serif" font-size="8.9607" font-weight="bold" lengthAdjust="spacing" textLength="43.9891" x="236.6448" y="778.546">[正常续期]</text><polygon fill="#181818" points="225.6476,796.5124,217.5014,799.7709,225.6476,803.0293,222.3891,799.7709" style="stroke:#181818;stroke-width:0.8146121046267422;"/><line style="stroke:#181818;stroke-width:0.8146121046267422;" x1="220.7599" x2="457.812" y1="799.7709" y2="799.7709"/><text fill="#000000" font-family="sans-serif" font-size="10.59" lengthAdjust="spacing" textLength="74.1297" x="230.5352" y="795.6441">更新证书有效期</text><line style="stroke:#000000;stroke-width:0.8146121046267422;stroke-dasharray:2.0,2.0;" x1="172.2905" x2="513.2056" y1="807.1024" y2="807.1024"/><text fill="#000000" font-family="sans-serif" font-size="8.9607" font-weight="bold" lengthAdjust="spacing" textLength="43.9891" x="176.3635" y="815.42">[异常撤销]</text><polygon fill="#181818" points="225.6476,832.3045,217.5014,835.5629,225.6476,838.8214,222.3891,835.5629" style="stroke:#181818;stroke-width:0.8146121046267422;"/><line style="stroke:#181818;stroke-width:0.8146121046267422;" x1="220.7599" x2="457.812" y1="835.5629" y2="835.5629"/><text fill="#000000" font-family="sans-serif" font-size="10.59" lengthAdjust="spacing" textLength="61.9105" x="230.5352" y="831.4362">加入CRL列表</text><!--MD5=[6d5ff3c5e8eec5fee0e26463faa244c7]
@startuml
skinparam participantFontSize 25
scale 900 width 
scale 900 height

title 分布式身份认证协议流程

participant 设备 as D
participant 区块链 as BC
participant KGG组 as KGG
participant 智能合约 as SC

group 设备注册请求生成
D -> D: 生成密钥对\n(PK_i,SK_i)
D -> D: 计算H(PUF_i)\n绑定硬件特征
D -> BC: 发送注册请求\nIR_i=⟨ID_i,PK_i,H(PUF_i),σ_SK⟩
end

group KGG共识验证
BC -> KGG: 广播验证请求
activate KGG
KGG -> KGG: 1.物理特征校验\n(匹配预置数据库)
KGG -> KGG: 2.行为模式分析\n(信号/采样稳定性)
KGG -> KGG: 3.拓扑关联度计算\nT(n_i)=Σ(Q(v_j)/dist)
deactivate KGG
KGG - -> BC: 返回验证结果\n(Byzantine共识)
end

group 门限证书颁发
BC -> KGG: 触发(t,n)门限签名
activate KGG
KGG -> KGG: 聚合签名分片\n∏σ_SK_KGG(H(ID||PK))
deactivate KGG
KGG - -> BC: 生成Cert_i\n存储至Verkle树
BC -> D: 颁发设备证书\n⟨ID,PK,T_expire⟩
end

group 动态证书管理
BC -> SC: 监控证书状态
SC -> SC: 自动续期条件\n(T_expire-T_current < ΔT)
SC -> SC: 异常检测机制\n(连续3次失败)
alt 正常续期
SC -> BC: 更新证书有效期
else 异常撤销
SC -> BC: 加入CRL列表
end
end
@enduml

PlantUML version 1.2022.7(Mon Aug 22 17:01:30 UTC 2022)
(GPL source distribution)
Java Runtime: OpenJDK Runtime Environment
JVM: OpenJDK 64-Bit Server VM
Default Encoding: UTF-8
Language: en
Country: null
--></g></svg>